<svg width="24" height="24" viewBox="0 0 24 24" fill="none" xmlns="http://www.w3.org/2000/svg">
<path d="M19.9999 9.66998V9.49998C20.006 7.79893 19.4663 6.14078 18.4601 4.7692C17.4539 3.39762 16.0343 2.38494 14.4099 1.87998H14.3499C13.511 1.62422 12.6369 1.50272 11.7599 1.51998C9.67177 1.63458 7.70604 2.54173 6.26394 4.05631C4.82184 5.57089 4.01208 7.5787 3.99994 9.66998C3.41395 9.87612 2.9064 10.2591 2.54736 10.766C2.18832 11.2729 1.99548 11.8788 1.99548 12.5C1.99548 13.1212 2.18832 13.727 2.54736 14.234C2.9064 14.7409 3.41395 15.1238 3.99994 15.33C4.20591 17.3048 5.13886 19.1324 6.61742 20.4576C8.09598 21.7827 10.0145 22.5107 11.9999 22.5H12.2299C14.1499 22.4071 15.9748 21.6368 17.3808 20.3261C18.7868 19.0153 19.6828 17.2487 19.9099 15.34C20.5028 15.1455 21.0203 14.771 21.3904 14.2686C21.7604 13.7662 21.9646 13.1609 21.9745 12.537C21.9844 11.9132 21.7995 11.3017 21.4456 10.7878C21.0917 10.2739 20.5864 9.88318 19.9999 9.66998ZM12.1799 20.5C10.7323 20.5419 9.31844 20.0587 8.19915 19.1398C7.07985 18.2208 6.33071 16.928 6.08994 15.5H17.8599C17.6159 16.8519 16.9219 18.0815 15.8908 18.9892C14.8596 19.8969 13.5519 20.4294 12.1799 20.5ZM18.9999 13.5H4.99994C4.73473 13.5 4.48037 13.3946 4.29284 13.2071C4.1053 13.0196 3.99994 12.7652 3.99994 12.5C3.99994 12.2348 4.1053 11.9804 4.29284 11.7929C4.48037 11.6053 4.73473 11.5 4.99994 11.5H6.99994C7.26516 11.5 7.51951 11.3946 7.70705 11.2071C7.89459 11.0196 7.99994 10.7652 7.99994 10.5C7.99994 10.2348 7.89459 9.98041 7.70705 9.79288C7.51951 9.60534 7.26516 9.49998 6.99994 9.49998H5.99994C6.04471 8.4626 6.34121 7.45168 6.86386 6.55445C7.38652 5.65723 8.11963 4.90064 8.99994 4.34998V7.49998C8.99994 7.7652 9.1053 8.01955 9.29284 8.20709C9.48037 8.39463 9.73473 8.49998 9.99994 8.49998C10.2652 8.49998 10.5195 8.39463 10.7071 8.20709C10.8946 8.01955 10.9999 7.7652 10.9999 7.49998V3.58998C11.2714 3.54464 11.5451 3.51459 11.8199 3.49998H11.9999C12.3351 3.5047 12.6694 3.53479 12.9999 3.58998V7.49998C12.9999 7.7652 13.1053 8.01955 13.2928 8.20709C13.4804 8.39463 13.7347 8.49998 13.9999 8.49998C14.2652 8.49998 14.5195 8.39463 14.7071 8.20709C14.8946 8.01955 14.9999 7.7652 14.9999 7.49998V4.31998C15.4241 4.56561 15.8199 4.85738 16.1799 5.18998C16.7565 5.74988 17.2147 6.4199 17.5273 7.16028C17.84 7.90066 18.0007 8.6963 17.9999 9.49998H16.9999C16.7347 9.49998 16.4804 9.60534 16.2928 9.79288C16.1053 9.98041 15.9999 10.2348 15.9999 10.5C15.9999 10.7652 16.1053 11.0196 16.2928 11.2071C16.4804 11.3946 16.7347 11.5 16.9999 11.5H18.9999C19.2652 11.5 19.5195 11.6053 19.7071 11.7929C19.8946 11.9804 19.9999 12.2348 19.9999 12.5C19.9999 12.7652 19.8946 13.0196 19.7071 13.2071C19.5195 13.3946 19.2652 13.5 18.9999 13.5Z" fill="black"/>
</svg>
