<svg width="22" height="22" viewBox="0 0 22 22" fill="none" xmlns="http://www.w3.org/2000/svg">
<path d="M15.5834 8.40584C15.4116 8.23511 15.1793 8.13928 14.9371 8.13928C14.695 8.13928 14.4626 8.23511 14.2909 8.40584L11.0001 11.6508L7.75505 8.40584C7.58331 8.23511 7.35097 8.13928 7.1088 8.13928C6.86663 8.13928 6.6343 8.23511 6.46255 8.40584C6.37664 8.49106 6.30844 8.59244 6.2619 8.70415C6.21537 8.81585 6.19141 8.93566 6.19141 9.05668C6.19141 9.17769 6.21537 9.2975 6.2619 9.4092C6.30844 9.52091 6.37664 9.62229 6.46255 9.70751L10.3492 13.5942C10.4344 13.6801 10.5358 13.7483 10.6475 13.7948C10.7592 13.8414 10.879 13.8653 11.0001 13.8653C11.1211 13.8653 11.2409 13.8414 11.3526 13.7948C11.4643 13.7483 11.5657 13.6801 11.6509 13.5942L15.5834 9.70751C15.6693 9.62229 15.7375 9.52091 15.784 9.4092C15.8306 9.2975 15.8545 9.17769 15.8545 9.05668C15.8545 8.93566 15.8306 8.81585 15.784 8.70415C15.7375 8.59244 15.6693 8.49106 15.5834 8.40584Z" fill="black"/>
</svg>
