<svg width="16" height="16" viewBox="0 0 16 16" fill="none" xmlns="http://www.w3.org/2000/svg">
<path d="M1.66661 5.90669L7.66661 9.37336C7.76795 9.43187 7.88291 9.46267 7.99994 9.46267C8.11696 9.46267 8.23193 9.43187 8.33327 9.37336L14.3333 5.90669C14.434 5.84852 14.5178 5.76499 14.5763 5.66441C14.6348 5.56383 14.6659 5.4497 14.6666 5.33336C14.6671 5.21588 14.6365 5.10037 14.578 4.99852C14.5194 4.89667 14.435 4.81209 14.3333 4.75336L8.33327 1.29336C8.23193 1.23484 8.11696 1.20404 7.99994 1.20404C7.88291 1.20404 7.76795 1.23484 7.66661 1.29336L1.66661 4.75336C1.56487 4.81209 1.48046 4.89667 1.42192 4.99852C1.36339 5.10037 1.33281 5.21588 1.33327 5.33336C1.33397 5.4497 1.36511 5.56383 1.42359 5.66441C1.48207 5.76499 1.56585 5.84852 1.66661 5.90669ZM7.99994 2.66669L12.6666 5.33336L7.99994 8.00002L3.33327 5.33336L7.99994 2.66669ZM13.6666 7.44669L7.99994 10.6667L2.33327 7.42002C2.25718 7.37594 2.17313 7.34735 2.08594 7.3359C1.99875 7.32444 1.91016 7.33035 1.82527 7.35328C1.74038 7.3762 1.66086 7.4157 1.59129 7.46949C1.52173 7.52328 1.46349 7.5903 1.41994 7.66669C1.33302 7.81977 1.31018 8.00101 1.35639 8.17087C1.4026 8.34072 1.51412 8.48541 1.66661 8.57336L7.66661 12.04C7.76795 12.0985 7.88291 12.1293 7.99994 12.1293C8.11696 12.1293 8.23193 12.0985 8.33327 12.04L14.3333 8.57336C14.4858 8.48541 14.5973 8.34072 14.6435 8.17087C14.6897 8.00101 14.6669 7.81977 14.5799 7.66669C14.5364 7.5903 14.4781 7.52328 14.4086 7.46949C14.339 7.4157 14.2595 7.3762 14.1746 7.35328C14.0897 7.33035 14.0011 7.32444 13.9139 7.3359C13.8268 7.34735 13.7427 7.37594 13.6666 7.42002V7.44669ZM13.6666 10.1134L7.99994 13.3334L2.33327 10.0867C2.25718 10.0426 2.17313 10.014 2.08594 10.0026C1.99875 9.99111 1.91016 9.99701 1.82527 10.0199C1.74038 10.0429 1.66086 10.0824 1.59129 10.1362C1.52173 10.1899 1.46349 10.257 1.41994 10.3334C1.33302 10.4864 1.31018 10.6677 1.35639 10.8375C1.4026 11.0074 1.51412 11.1521 1.66661 11.24L7.66661 14.7067C7.76795 14.7652 7.88291 14.796 7.99994 14.796C8.11696 14.796 8.23193 14.7652 8.33327 14.7067L14.3333 11.24C14.4858 11.1521 14.5973 11.0074 14.6435 10.8375C14.6897 10.6677 14.6669 10.4864 14.5799 10.3334C14.5364 10.257 14.4781 10.1899 14.4086 10.1362C14.339 10.0824 14.2595 10.0429 14.1746 10.0199C14.0897 9.99701 14.0011 9.99111 13.9139 10.0026C13.8268 10.014 13.7427 10.0426 13.6666 10.0867V10.1134Z" fill="black"/>
</svg>
