<svg width="20" height="20" viewBox="0 0 20 20" fill="none" xmlns="http://www.w3.org/2000/svg">
<path d="M17.5001 1.66663H7.50008C7.27907 1.66663 7.06711 1.75442 6.91083 1.9107C6.75455 2.06698 6.66675 2.27895 6.66675 2.49996V5.83329H5.00008C4.77907 5.83329 4.56711 5.92109 4.41083 6.07737C4.25455 6.23365 4.16675 6.44561 4.16675 6.66663V9.99996H2.50008C2.27907 9.99996 2.06711 10.0878 1.91083 10.244C1.75455 10.4003 1.66675 10.6123 1.66675 10.8333V17.5C1.66675 17.721 1.75455 17.9329 1.91083 18.0892C2.06711 18.2455 2.27907 18.3333 2.50008 18.3333H9.16675C9.38776 18.3333 9.59972 18.2455 9.756 18.0892C9.91228 17.9329 10.0001 17.721 10.0001 17.5V15.8333H13.3334C13.5544 15.8333 13.7664 15.7455 13.9227 15.5892C14.079 15.4329 14.1667 15.221 14.1667 15V13.3333H17.5001C17.7211 13.3333 17.9331 13.2455 18.0893 13.0892C18.2456 12.9329 18.3334 12.721 18.3334 12.5V2.49996C18.3334 2.27895 18.2456 2.06698 18.0893 1.9107C17.9331 1.75442 17.7211 1.66663 17.5001 1.66663ZM8.33341 16.6666H3.33341V11.6666H8.33341V16.6666ZM12.5001 14.1666H10.0001V10.8333C10.0001 10.6123 9.91228 10.4003 9.756 10.244C9.59972 10.0878 9.38776 9.99996 9.16675 9.99996H5.83341V7.49996H12.5001V14.1666ZM16.6667 11.6666H14.1667V6.66663C14.1667 6.44561 14.079 6.23365 13.9227 6.07737C13.7664 5.92109 13.5544 5.83329 13.3334 5.83329H8.33341V3.33329H16.6667V11.6666Z" fill="black"/>
</svg>
