<?xml version="1.0" encoding="UTF-8"?>
<svg id="_Слой_1" data-name="Слой 1" xmlns="http://www.w3.org/2000/svg" viewBox="0 0 2083.84 500">
  <defs>
    <style>
      .cls-1 {
        fill: #0a2d4f;
      }
    </style>
  </defs>
  <g>
    <path class="cls-1" d="M635.38,362.9c1.59,3.53,3.12,7.15,4.59,10.85,1.46-3.79,2.99-7.49,4.59-11.11,1.59-3.62,3.29-7.06,5.1-10.33l48.31-95.08c.86-1.64,1.74-2.91,2.65-3.81s1.92-1.57,3.04-2c1.12-.43,2.39-.69,3.81-.77,1.42-.09,3.08-.13,4.97-.13h33.33v188.22h-38.5v-108.25c0-5.25,.26-10.94,.78-17.05l-49.86,96.76c-1.55,3.02-3.64,5.3-6.27,6.85-2.63,1.55-5.62,2.33-8.98,2.33h-5.94c-3.36,0-6.35-.78-8.98-2.33-2.63-1.55-4.71-3.83-6.27-6.85l-50.12-96.89c.34,3.02,.6,6.01,.78,8.98,.17,2.97,.26,5.71,.26,8.2v108.25h-38.5V250.52h33.33c1.89,0,3.55,.04,4.97,.13,1.42,.09,2.69,.34,3.81,.77,1.12,.43,2.13,1.1,3.04,2,.9,.9,1.79,2.18,2.65,3.81l48.44,95.47c1.72,3.27,3.38,6.68,4.97,10.21Z"/>
    <path class="cls-1" d="M835.29,302.7c10.16,0,19.42,1.59,27.77,4.78,8.35,3.19,15.52,7.75,21.51,13.69,5.98,5.94,10.64,13.16,13.95,21.64,3.31,8.48,4.97,18.02,4.97,28.61s-1.66,20.3-4.97,28.87c-3.32,8.57-7.97,15.85-13.95,21.83-5.99,5.99-13.16,10.59-21.51,13.82-8.35,3.23-17.61,4.84-27.77,4.84s-19.57-1.61-27.97-4.84c-8.4-3.23-15.63-7.84-21.7-13.82-6.07-5.98-10.77-13.26-14.08-21.83-3.32-8.57-4.97-18.19-4.97-28.87s1.66-20.13,4.97-28.61c3.31-8.48,8.01-15.7,14.08-21.64,6.07-5.94,13.31-10.51,21.7-13.69,8.4-3.19,17.72-4.78,27.97-4.78Zm0,108.38c9.21,0,16-3.25,20.35-9.75,4.35-6.5,6.52-16.38,6.52-29.65s-2.18-23.12-6.52-29.58c-4.35-6.46-11.13-9.69-20.35-9.69s-16.41,3.23-20.8,9.69c-4.39,6.46-6.59,16.32-6.59,29.58s2.2,23.15,6.59,29.65c4.39,6.5,11.32,9.75,20.8,9.75Z"/>
    <path class="cls-1" d="M1020.15,438.73c-5,0-8.27-2.24-9.82-6.72l-3.1-10.21c-2.67,2.84-5.47,5.43-8.4,7.75-2.93,2.33-6.09,4.33-9.5,6.01-3.4,1.68-7.06,2.97-10.98,3.88-3.92,.9-8.16,1.36-12.72,1.36-6.98,0-13.44-1.55-19.38-4.65-5.94-3.1-11.07-7.58-15.37-13.44-4.31-5.86-7.69-13.03-10.14-21.51-2.45-8.48-3.68-18.15-3.68-29,0-9.99,1.38-19.27,4.13-27.84,2.75-8.57,6.65-15.97,11.69-22.22,5.04-6.24,11.09-11.13,18.15-14.66,7.06-3.53,14.86-5.3,23.38-5.3,6.89,0,12.72,1.01,17.5,3.04,4.78,2.02,9.11,4.67,12.98,7.94v-67.82h40.05v193.38h-24.8Zm-40.56-28.68c2.93,0,5.58-.28,7.95-.84,2.37-.56,4.54-1.36,6.52-2.39,1.98-1.03,3.85-2.32,5.62-3.88,1.76-1.55,3.51-3.36,5.23-5.43v-56.84c-3.1-3.36-6.39-5.7-9.88-7.04-3.49-1.33-7.17-2-11.04-2s-7.1,.73-10.21,2.2c-3.1,1.47-5.79,3.81-8.07,7.04-2.28,3.23-4.07,7.43-5.36,12.6-1.29,5.17-1.94,11.41-1.94,18.73s.52,13.01,1.55,17.83c1.03,4.82,2.47,8.72,4.33,11.69,1.85,2.97,4.07,5.1,6.65,6.39,2.58,1.29,5.47,1.94,8.65,1.94Z"/>
    <path class="cls-1" d="M1127.75,473.48c-1.21,2.67-2.67,4.63-4.39,5.88-1.72,1.25-4.48,1.87-8.27,1.87h-29.97l25.84-54.26-53.48-122.21h35.4c3.1,0,5.49,.69,7.17,2.07,1.68,1.38,2.91,3.02,3.68,4.91l21.96,57.74c2.07,5.34,3.75,10.68,5.04,16.02,.86-2.76,1.79-5.49,2.78-8.2,.99-2.71,2-5.4,3.03-8.07l19.89-57.49c.78-1.98,2.15-3.64,4.13-4.97,1.98-1.33,4.13-2,6.46-2h32.3l-71.57,168.71Z"/>
    <path class="cls-1" d="M1251.12,245.35v193.38h-40.05V245.35h40.05Z"/>
    <path class="cls-1" d="M1278.12,344.04h69.76v32.3h-69.76v-32.3Z"/>
    <path class="cls-1" d="M1425.9,302.45c5.68,0,11.05,.56,16.08,1.68,5.04,1.12,9.71,2.71,14.02,4.78h40.43v14.6c0,2.24-.63,4-1.87,5.3-1.25,1.29-3.38,2.28-6.39,2.97l-9.82,2.2c1.21,3.88,1.81,7.88,1.81,12.01,0,6.72-1.4,12.75-4.2,18.09-2.8,5.34-6.63,9.88-11.5,13.63-4.87,3.75-10.61,6.63-17.25,8.66-6.63,2.02-13.74,3.04-21.31,3.04-4.22,0-8.18-.26-11.88-.78-2.93,1.72-4.39,3.7-4.39,5.94s1.21,3.86,3.62,4.84c2.41,.99,5.6,1.68,9.56,2.07,3.96,.39,8.46,.65,13.5,.77,5.04,.13,10.18,.43,15.44,.9,5.25,.47,10.4,1.27,15.44,2.39,5.04,1.12,9.54,2.93,13.5,5.43,3.96,2.5,7.15,5.84,9.56,10.01,2.41,4.18,3.62,9.49,3.62,15.95,0,6.03-1.47,11.93-4.39,17.7-2.93,5.77-7.23,10.89-12.92,15.37-5.68,4.48-12.66,8.07-20.93,10.79-8.27,2.71-17.74,4.07-28.42,4.07s-19.57-.99-27.19-2.97c-7.62-1.98-13.95-4.59-18.99-7.82s-8.76-6.96-11.17-11.17c-2.41-4.22-3.62-8.61-3.62-13.18,0-5.94,1.72-10.9,5.17-14.86,3.44-3.96,8.27-7.15,14.47-9.56-3.27-1.98-5.86-4.52-7.75-7.62-1.9-3.1-2.84-7.1-2.84-12.01,0-1.98,.34-4.07,1.03-6.27,.69-2.2,1.76-4.33,3.23-6.39,1.46-2.07,3.31-4.05,5.55-5.94,2.24-1.89,4.91-3.57,8.01-5.04-6.98-3.7-12.47-8.61-16.47-14.73-4-6.11-6.01-13.22-6.01-21.31,0-6.72,1.42-12.77,4.26-18.15,2.84-5.38,6.74-9.95,11.69-13.69,4.95-3.75,10.79-6.63,17.5-8.66,6.72-2.02,13.99-3.04,21.83-3.04Zm31,141.2c0-3.19-1.42-5.49-4.26-6.91s-6.55-2.41-11.11-2.97c-4.57-.56-9.69-.9-15.37-1.03s-11.33-.49-16.92-1.1c-2.5,1.72-4.52,3.64-6.07,5.75-1.55,2.11-2.32,4.5-2.32,7.17,0,1.89,.41,3.62,1.23,5.17,.82,1.55,2.26,2.88,4.33,4,2.07,1.12,4.84,2,8.33,2.65,3.49,.65,7.9,.97,13.24,.97,5.77,0,10.51-.34,14.21-1.03,3.7-.69,6.65-1.64,8.85-2.84,2.2-1.21,3.72-2.65,4.59-4.33,.86-1.68,1.29-3.51,1.29-5.49Zm-31-78.93c6.63,0,11.43-1.66,14.4-4.97,2.97-3.31,4.46-7.6,4.46-12.85s-1.49-9.69-4.46-12.79c-2.97-3.1-7.77-4.65-14.4-4.65s-11.43,1.55-14.4,4.65c-2.97,3.1-4.46,7.36-4.46,12.79,0,2.58,.37,4.95,1.1,7.11,.73,2.15,1.87,4.03,3.42,5.62,1.55,1.59,3.51,2.84,5.88,3.75,2.37,.9,5.19,1.36,8.46,1.36Z"/>
    <path class="cls-1" d="M1513.23,438.73v-133.96h23.77c1.98,0,3.64,.17,4.97,.52,1.33,.35,2.45,.88,3.36,1.61,.9,.73,1.59,1.7,2.07,2.91,.47,1.21,.88,2.67,1.23,4.39l1.94,11.37c4.22-7.23,9.02-12.94,14.4-17.12,5.38-4.18,11.56-6.27,18.54-6.27,6.03,0,10.94,1.42,14.73,4.26l-2.58,29.45c-.43,1.9-1.14,3.19-2.13,3.88-.99,.69-2.35,1.03-4.07,1.03-.69,0-1.6-.04-2.71-.13-1.12-.08-2.28-.19-3.49-.32-1.21-.13-2.43-.26-3.68-.39-1.25-.13-2.39-.19-3.42-.19-5.86,0-10.53,1.57-14.02,4.72-3.49,3.14-6.44,7.47-8.85,12.98v81.26h-40.05Z"/>
    <path class="cls-1" d="M1671.21,302.7c10.16,0,19.42,1.59,27.77,4.78,8.35,3.19,15.52,7.75,21.51,13.69,5.99,5.94,10.64,13.16,13.95,21.64,3.31,8.48,4.97,18.02,4.97,28.61s-1.66,20.3-4.97,28.87c-3.32,8.57-7.97,15.85-13.95,21.83-5.99,5.99-13.16,10.59-21.51,13.82-8.35,3.23-17.61,4.84-27.77,4.84s-19.57-1.61-27.97-4.84c-8.4-3.23-15.63-7.84-21.7-13.82-6.07-5.98-10.77-13.26-14.08-21.83-3.32-8.57-4.97-18.19-4.97-28.87s1.66-20.13,4.97-28.61c3.31-8.48,8.01-15.7,14.08-21.64s13.31-10.51,21.7-13.69c8.4-3.19,17.72-4.78,27.97-4.78Zm0,108.38c9.21,0,16-3.25,20.35-9.75,4.35-6.5,6.52-16.38,6.52-29.65s-2.18-23.12-6.52-29.58c-4.35-6.46-11.13-9.69-20.35-9.69s-16.41,3.23-20.8,9.69c-4.39,6.46-6.59,16.32-6.59,29.58s2.2,23.15,6.59,29.65c4.39,6.5,11.32,9.75,20.8,9.75Z"/>
    <path class="cls-1" d="M1798.33,304.77v85c0,6.63,1.51,11.76,4.52,15.37,3.01,3.62,7.45,5.43,13.31,5.43,4.39,0,8.5-.9,12.34-2.71,3.83-1.81,7.56-4.35,11.17-7.62v-95.47h40.05v133.96h-24.8c-5,0-8.27-2.24-9.82-6.72l-2.45-7.75c-2.58,2.5-5.25,4.76-8.01,6.78-2.76,2.02-5.71,3.75-8.85,5.17-3.14,1.42-6.52,2.54-10.14,3.36-3.62,.82-7.58,1.23-11.88,1.23-7.32,0-13.8-1.27-19.44-3.81-5.64-2.54-10.4-6.09-14.28-10.66-3.88-4.56-6.8-9.95-8.78-16.15-1.98-6.2-2.97-13-2.97-20.41v-85h40.05Z"/>
    <path class="cls-1" d="M1906.84,481.23v-176.46h24.8c4.99,0,8.27,2.24,9.82,6.72l2.97,9.82c2.58-2.84,5.36-5.43,8.33-7.75,2.97-2.33,6.16-4.33,9.56-6.01,3.4-1.68,7.06-2.99,10.98-3.94,3.92-.95,8.2-1.42,12.85-1.42,6.98,0,13.43,1.55,19.38,4.65,5.94,3.1,11.07,7.58,15.37,13.43,4.31,5.86,7.69,13.03,10.14,21.51,2.45,8.48,3.68,18.11,3.68,28.87,0,10.08-1.4,19.38-4.2,27.9-2.8,8.53-6.72,15.93-11.76,22.22-5.04,6.29-11.07,11.2-18.09,14.73-7.02,3.53-14.79,5.3-23.32,5.3-6.98,0-12.83-.99-17.57-2.97-4.74-1.98-9.04-4.65-12.92-8.01v51.41h-40.05Zm65.37-148.43c-2.93,0-5.58,.28-7.94,.84-2.37,.56-4.57,1.36-6.59,2.39-2.02,1.03-3.9,2.35-5.62,3.94-1.72,1.59-3.45,3.42-5.17,5.49v56.84c3.01,3.36,6.29,5.71,9.82,7.04,3.53,1.34,7.23,2,11.11,2s7.1-.73,10.21-2.2c3.1-1.46,5.79-3.81,8.07-7.04,2.28-3.23,4.07-7.43,5.36-12.6,1.29-5.17,1.94-11.45,1.94-18.86s-.52-13-1.55-17.83c-1.03-4.82-2.48-8.72-4.33-11.69-1.85-2.97-4.07-5.1-6.65-6.39-2.58-1.29-5.47-1.94-8.66-1.94Z"/>
  </g>
  <g>
    <polygon class="cls-1" points="194.24 240.14 194.24 240.07 185.89 228.02 194.24 240.14"/>
    <polygon class="cls-1" points="255.37 15.66 30.07 206.43 30.07 248.56 255.66 57.55 480.99 243.17 480.99 201.52 255.37 15.66"/>
    <polygon class="cls-1" points="251.54 376.14 290.64 376.14 290.64 406.76 226.21 406.76 226.21 314.78 194.24 267.76 194.24 438.73 322.62 438.73 322.62 344.17 251.54 344.17 251.54 376.14"/>
    <polygon class="cls-1" points="226.21 155.14 256.53 129.94 310.12 174.22 329.03 148.37 256.1 88.18 194.65 140.54 194.24 186.78 226.21 230.38 226.21 155.14"/>
    <path class="cls-1" d="M342.06,158.11l-.02,.02h-.02s0,.02,0,.02l-84.39,115.08-31.43-42.86-31.97-43.6-21.02-28.67h0s-92.57,77.33-92.57,77.33v203.3h92.58V209.75l12.66,18.26v.02s8.37,12.05,8.37,12.05v.07l31.97,46.37v-.33l31.43,45.33,84.39-121.71v228.93h92.58V235.43l-92.51-77.26-.03-.07Zm-200.81,248.66h-28.64V250.39l28.64-23.92v180.29Zm232.75-180.3l28.64,23.92v156.37h-28.64V226.47Z"/>
  </g>
</svg>
