<svg width="15" height="15" viewBox="0 0 15 15" fill="none" xmlns="http://www.w3.org/2000/svg">
<path d="M12.1313 8.125C11.9938 8.125 11.85 8.08125 11.7125 8.05C11.4343 7.98779 11.1607 7.90634 10.8938 7.80625C10.6039 7.70077 10.2851 7.70625 9.99899 7.82163C9.71284 7.93701 9.47947 8.15415 9.3438 8.43125L9.2063 8.71875C8.59931 8.3745 8.03856 7.95447 7.53755 7.46875C7.05183 6.96773 6.63179 6.40699 6.28755 5.8L6.57505 5.66875C6.85215 5.53307 7.06928 5.29971 7.18467 5.01356C7.30005 4.72741 7.30553 4.4087 7.20005 4.11875C7.10079 3.84939 7.01936 3.5738 6.9563 3.29375C6.92505 3.15625 6.90005 3.0125 6.8813 2.875C6.8054 2.43476 6.57481 2.03609 6.23106 1.75077C5.88731 1.46546 5.45298 1.31226 5.0063 1.31875H3.12505C2.86083 1.3184 2.59952 1.3739 2.35825 1.48161C2.11697 1.58932 1.90119 1.74681 1.72505 1.94375C1.54525 2.14603 1.41137 2.38484 1.33261 2.64377C1.25385 2.9027 1.23208 3.17561 1.2688 3.44375C1.60854 6.04509 2.79705 8.46166 4.65005 10.3188C6.50714 12.1717 8.92371 13.3603 11.525 13.7C11.6062 13.7062 11.6877 13.7062 11.7688 13.7C12.2297 13.7007 12.6747 13.5316 13.0188 13.225C13.2157 13.0489 13.3732 12.8331 13.4809 12.5918C13.5886 12.3505 13.6441 12.0892 13.6438 11.825V9.95C13.6404 9.51815 13.4881 9.1007 13.2125 8.76818C12.9369 8.43567 12.555 8.20848 12.1313 8.125ZM12.4375 11.875C12.4373 11.9622 12.4189 12.0484 12.3834 12.1281C12.3478 12.2077 12.296 12.2791 12.2313 12.3375C12.1628 12.3999 12.0813 12.4463 11.9926 12.4733C11.904 12.5004 11.8105 12.5073 11.7188 12.4937C9.38647 12.1891 7.21895 11.1262 5.55005 9.46875C3.87972 7.79842 2.80757 5.62335 2.50005 3.28125C2.48647 3.18958 2.49344 3.09605 2.52047 3.00741C2.54749 2.91877 2.59389 2.83725 2.6563 2.76875C2.71543 2.70322 2.78778 2.65096 2.86858 2.61541C2.94937 2.57986 3.03678 2.56183 3.12505 2.5625H5.00005C5.14452 2.55897 5.28576 2.60562 5.39971 2.6945C5.51367 2.78338 5.5933 2.90901 5.62505 3.05C5.62505 3.21875 5.6813 3.39375 5.7188 3.5625C5.79103 3.88991 5.88712 4.21161 6.0063 4.525L5.1313 4.9375C4.9809 5.00654 4.86402 5.13241 4.8063 5.2875C4.74379 5.43966 4.74379 5.61034 4.8063 5.7625C5.7058 7.68922 7.25457 9.238 9.1813 10.1375C9.33346 10.2 9.50413 10.2 9.6563 10.1375C9.81139 10.0798 9.93726 9.9629 10.0063 9.8125L10.4 8.9375C10.7225 9.05508 11.0524 9.15112 11.3875 9.225C11.55 9.2625 11.725 9.29375 11.8938 9.31875C12.0348 9.3505 12.1604 9.43013 12.2493 9.54408C12.3382 9.65804 12.3848 9.79927 12.3813 9.94375L12.4375 11.875ZM8.75005 1.25C8.6063 1.25 8.4563 1.25 8.31255 1.25C8.14679 1.26409 7.99341 1.34345 7.88616 1.47062C7.77892 1.5978 7.72658 1.76236 7.74067 1.92813C7.75476 2.09389 7.83412 2.24726 7.96129 2.35451C8.08847 2.46175 8.25304 2.51409 8.4188 2.5H8.75005C9.74461 2.5 10.6984 2.89509 11.4017 3.59835C12.105 4.30161 12.5 5.25544 12.5 6.25C12.5 6.3625 12.5 6.46875 12.5 6.58125C12.4862 6.74613 12.5383 6.90978 12.6449 7.03631C12.7515 7.16285 12.904 7.24194 13.0688 7.25625H13.1188C13.2753 7.25688 13.4263 7.19881 13.542 7.09351C13.6577 6.9882 13.7297 6.84333 13.7438 6.6875C13.7438 6.54375 13.7438 6.39375 13.7438 6.25C13.7438 4.925 13.2179 3.65418 12.2815 2.71667C11.3452 1.77917 10.075 1.25166 8.75005 1.25ZM10 6.25C10 6.41576 10.0659 6.57473 10.1831 6.69194C10.3003 6.80915 10.4593 6.875 10.625 6.875C10.7908 6.875 10.9498 6.80915 11.067 6.69194C11.1842 6.57473 11.25 6.41576 11.25 6.25C11.25 5.58696 10.9867 4.95107 10.5178 4.48223C10.049 4.01339 9.41309 3.75 8.75005 3.75C8.58429 3.75 8.42531 3.81585 8.3081 3.93306C8.19089 4.05027 8.12505 4.20924 8.12505 4.375C8.12505 4.54076 8.19089 4.69973 8.3081 4.81694C8.42531 4.93415 8.58429 5 8.75005 5C9.08157 5 9.39951 5.1317 9.63393 5.36612C9.86835 5.60054 10 5.91848 10 6.25Z" fill="black"/>
</svg>
