<svg width="15" height="15" viewBox="0 0 15 15" fill="none" xmlns="http://www.w3.org/2000/svg">
<path d="M11.875 1.25H3.125C2.62772 1.25 2.15081 1.44754 1.79917 1.79917C1.44754 2.15081 1.25 2.62772 1.25 3.125V11.875C1.25 12.3723 1.44754 12.8492 1.79917 13.2008C2.15081 13.5525 2.62772 13.75 3.125 13.75H11.875C11.9778 13.7486 12.0803 13.7381 12.1812 13.7188L12.3688 13.675H12.4125H12.4438L12.675 13.5875L12.7563 13.5437C12.8188 13.5063 12.8875 13.475 12.95 13.4312C13.0335 13.3698 13.1128 13.303 13.1875 13.2312L13.2312 13.175C13.2926 13.1128 13.349 13.0459 13.4 12.975L13.4563 12.8937C13.4999 12.8242 13.5375 12.751 13.5687 12.675C13.5859 12.645 13.6005 12.6137 13.6125 12.5812C13.6438 12.5062 13.6625 12.425 13.6875 12.3438V12.25C13.7229 12.1279 13.7439 12.002 13.75 11.875V3.125C13.75 2.62772 13.5525 2.15081 13.2008 1.79917C12.8492 1.44754 12.3723 1.25 11.875 1.25ZM3.125 12.5C2.95924 12.5 2.80027 12.4342 2.68306 12.3169C2.56585 12.1997 2.5 12.0408 2.5 11.875V9.18125L4.55625 7.11875C4.61435 7.06017 4.68348 7.01367 4.75964 6.98194C4.8358 6.95021 4.91749 6.93388 5 6.93388C5.08251 6.93388 5.1642 6.95021 5.24036 6.98194C5.31652 7.01367 5.38565 7.06017 5.44375 7.11875L10.8187 12.5H3.125ZM12.5 11.875C12.4994 11.9521 12.4846 12.0283 12.4563 12.1C12.442 12.1305 12.4252 12.1597 12.4062 12.1875C12.3895 12.214 12.3707 12.239 12.35 12.2625L9.00625 8.91875L9.55625 8.36875C9.61435 8.31017 9.68348 8.26367 9.75964 8.23194C9.8358 8.20021 9.91749 8.18388 10 8.18388C10.0825 8.18388 10.1642 8.20021 10.2404 8.23194C10.3165 8.26367 10.3856 8.31017 10.4437 8.36875L12.5 10.4313V11.875ZM12.5 8.6625L11.325 7.5C10.9673 7.16062 10.4931 6.97142 10 6.97142C9.50694 6.97142 9.03267 7.16062 8.675 7.5L8.125 8.05L6.325 6.25C5.96733 5.91062 5.49306 5.72142 5 5.72142C4.50694 5.72142 4.03267 5.91062 3.675 6.25L2.5 7.4125V3.125C2.5 2.95924 2.56585 2.80027 2.68306 2.68306C2.80027 2.56585 2.95924 2.5 3.125 2.5H11.875C12.0408 2.5 12.1997 2.56585 12.3169 2.68306C12.4342 2.80027 12.5 2.95924 12.5 3.125V8.6625ZM8.4375 3.75C8.25208 3.75 8.07082 3.80498 7.91665 3.908C7.76248 4.01101 7.64232 4.15743 7.57136 4.32873C7.50041 4.50004 7.48184 4.68854 7.51801 4.8704C7.55419 5.05225 7.64348 5.2193 7.77459 5.35041C7.9057 5.48152 8.07275 5.57081 8.2546 5.60699C8.43646 5.64316 8.62496 5.62459 8.79627 5.55364C8.96757 5.48268 9.11399 5.36252 9.217 5.20835C9.32002 5.05418 9.375 4.87292 9.375 4.6875C9.375 4.43886 9.27623 4.2004 9.10041 4.02459C8.9246 3.84877 8.68614 3.75 8.4375 3.75Z" fill="black"/>
</svg>
