<svg width="15" height="15" viewBox="0 0 15 15" fill="none" xmlns="http://www.w3.org/2000/svg">
<path d="M13.1687 10.5187L11.875 9.19374C11.5967 8.92921 11.2457 8.75394 10.867 8.69046C10.4883 8.62698 10.0993 8.67818 9.74999 8.83749L9.18749 8.27499C9.85034 7.38932 10.1531 6.28542 10.0347 5.18552C9.91636 4.08562 9.38573 3.07138 8.54964 2.34699C7.71355 1.6226 6.63408 1.24184 5.52853 1.28136C4.42299 1.32088 3.37346 1.77774 2.59122 2.55997C1.80899 3.34221 1.35213 4.39174 1.31261 5.49728C1.27309 6.60283 1.65385 7.6823 2.37824 8.51839C3.10263 9.35448 4.11687 9.88511 5.21677 10.0035C6.31667 10.1218 7.42057 9.81909 8.30624 9.15624L8.86249 9.71249C8.68442 10.0623 8.62061 10.4591 8.68004 10.8471C8.73946 11.235 8.91914 11.5946 9.19374 11.875L10.5187 13.2C10.8703 13.5511 11.3469 13.7483 11.8437 13.7483C12.3406 13.7483 12.8172 13.5511 13.1687 13.2C13.3473 13.0254 13.4892 12.8168 13.5861 12.5866C13.683 12.3564 13.7329 12.1091 13.7329 11.8594C13.7329 11.6096 13.683 11.3623 13.5861 11.1321C13.4892 10.9019 13.3473 10.6934 13.1687 10.5187ZM7.86874 7.86874C7.43139 8.30499 6.87456 8.60184 6.26858 8.72178C5.66261 8.84171 5.03468 8.77937 4.46412 8.54261C3.89356 8.30586 3.40597 7.90531 3.06294 7.39158C2.71991 6.87785 2.53683 6.27397 2.53683 5.65624C2.53683 5.03851 2.71991 4.43464 3.06294 3.92091C3.40597 3.40718 3.89356 3.00663 4.46412 2.76988C5.03468 2.53312 5.66261 2.47077 6.26858 2.59071C6.87456 2.71065 7.43139 3.0075 7.86874 3.44374C8.15976 3.73403 8.39066 4.07888 8.5482 4.45853C8.70574 4.83819 8.78683 5.2452 8.78683 5.65624C8.78683 6.06729 8.70574 6.4743 8.5482 6.85395C8.39066 7.23361 8.15976 7.57846 7.86874 7.86874ZM12.2875 12.2875C12.2294 12.3461 12.1603 12.3926 12.0841 12.4243C12.0079 12.456 11.9263 12.4724 11.8437 12.4724C11.7612 12.4724 11.6795 12.456 11.6034 12.4243C11.5272 12.3926 11.4581 12.3461 11.4 12.2875L10.075 10.9625C10.0164 10.9044 9.96992 10.8353 9.93819 10.7591C9.90646 10.6829 9.89012 10.6013 9.89012 10.5187C9.89012 10.4362 9.90646 10.3545 9.93819 10.2784C9.96992 10.2022 10.0164 10.1331 10.075 10.075C10.1331 10.0164 10.2022 9.96992 10.2784 9.93819C10.3545 9.90646 10.4362 9.89012 10.5187 9.89012C10.6013 9.89012 10.6829 9.90646 10.7591 9.93819C10.8353 9.96992 10.9044 10.0164 10.9625 10.075L12.2875 11.4C12.3461 11.4581 12.3926 11.5272 12.4243 11.6034C12.456 11.6795 12.4724 11.7612 12.4724 11.8437C12.4724 11.9263 12.456 12.0079 12.4243 12.0841C12.3926 12.1603 12.3461 12.2294 12.2875 12.2875Z" fill="black"/>
</svg>
