<svg width="15" height="15" viewBox="0 0 15 15" fill="none" xmlns="http://www.w3.org/2000/svg">
<path d="M12.7125 5.825L3.96253 1.45C3.61721 1.27813 3.22729 1.21695 2.84593 1.27479C2.46457 1.33262 2.11032 1.50667 1.83149 1.7732C1.55266 2.03973 1.36282 2.38577 1.28784 2.76414C1.21287 3.1425 1.25641 3.53479 1.41253 3.8875L2.91253 7.24375C2.94657 7.3249 2.9641 7.41201 2.9641 7.5C2.9641 7.588 2.94657 7.67511 2.91253 7.75625L1.41253 11.1125C1.28547 11.398 1.23175 11.7106 1.25627 12.0221C1.28078 12.3336 1.38275 12.634 1.5529 12.8961C1.72305 13.1581 1.95599 13.3735 2.23055 13.5226C2.50511 13.6718 2.81258 13.7499 3.12503 13.75C3.41768 13.7471 3.70596 13.6787 3.96878 13.55L12.7188 9.175C13.0292 9.01887 13.29 8.77957 13.4723 8.4838C13.6546 8.18804 13.7512 7.84744 13.7512 7.5C13.7512 7.15257 13.6546 6.81197 13.4723 6.5162C13.29 6.22044 13.0292 5.98114 12.7188 5.825H12.7125ZM12.1563 8.05625L3.40628 12.4313C3.29138 12.4864 3.16236 12.5051 3.03652 12.4849C2.91068 12.4647 2.79404 12.4064 2.70223 12.318C2.61042 12.2296 2.54783 12.1153 2.52286 11.9903C2.4979 11.8653 2.51174 11.7357 2.56253 11.6188L4.05628 8.2625C4.07562 8.21769 4.09231 8.17177 4.10628 8.125H8.41253C8.57829 8.125 8.73726 8.05916 8.85447 7.94195C8.97168 7.82474 9.03753 7.66576 9.03753 7.5C9.03753 7.33424 8.97168 7.17527 8.85447 7.05806C8.73726 6.94085 8.57829 6.875 8.41253 6.875H4.10628C4.09231 6.82823 4.07562 6.78232 4.05628 6.7375L2.56253 3.38125C2.51174 3.26436 2.4979 3.13472 2.52286 3.00973C2.54783 2.88475 2.61042 2.77038 2.70223 2.68197C2.79404 2.59356 2.91068 2.53534 3.03652 2.5151C3.16236 2.49486 3.29138 2.51358 3.40628 2.56875L12.1563 6.94375C12.2587 6.9962 12.3446 7.07589 12.4046 7.17403C12.4646 7.27218 12.4963 7.38497 12.4963 7.5C12.4963 7.61503 12.4646 7.72783 12.4046 7.82598C12.3446 7.92412 12.2587 8.00381 12.1563 8.05625Z" fill="black"/>
</svg>
