<svg width="15" height="15" viewBox="0 0 15 15" fill="none" xmlns="http://www.w3.org/2000/svg">
<g clip-path="url(#clip0_30_3662)">
<path d="M13.125 6.25C13.2071 6.25002 13.2884 6.23387 13.3642 6.20247C13.44 6.17107 13.5089 6.12503 13.567 6.06699C13.625 6.00895 13.6711 5.94004 13.7025 5.8642C13.7339 5.78836 13.75 5.70708 13.75 5.625V3.75C13.7501 3.61886 13.7088 3.49103 13.6321 3.38465C13.5554 3.27827 13.4472 3.19874 13.3228 3.15735L7.69776 1.28235C7.56938 1.23962 7.43062 1.23962 7.30224 1.28235L1.67724 3.15735C1.55281 3.19874 1.44457 3.27827 1.36788 3.38465C1.29119 3.49103 1.24995 3.61886 1.25 3.75V5.625C1.24998 5.70708 1.26613 5.78836 1.29753 5.8642C1.32893 5.94004 1.37497 6.00895 1.43301 6.06699C1.49105 6.12503 1.55996 6.17107 1.6358 6.20247C1.71164 6.23387 1.79292 6.25002 1.875 6.25H2.5V10.7402C2.13546 10.8686 1.8196 11.1067 1.59579 11.4218C1.37198 11.7369 1.25119 12.1135 1.25 12.5V13.75C1.24998 13.8321 1.26613 13.9134 1.29753 13.9892C1.32893 14.065 1.37497 14.1339 1.43301 14.192C1.49105 14.25 1.55996 14.2961 1.6358 14.3275C1.71164 14.3589 1.79292 14.375 1.875 14.375H13.125C13.2071 14.375 13.2884 14.3589 13.3642 14.3275C13.44 14.2961 13.5089 14.25 13.567 14.192C13.625 14.1339 13.6711 14.065 13.7025 13.9892C13.7339 13.9134 13.75 13.8321 13.75 13.75V12.5C13.7488 12.1135 13.628 11.7369 13.4042 11.4218C13.1804 11.1067 12.8645 10.8686 12.5 10.7402V6.25H13.125ZM12.5 13.125H2.5V12.5C2.50017 12.3343 2.56607 12.1754 2.68324 12.0582C2.80042 11.9411 2.95929 11.8752 3.125 11.875H11.875C12.0407 11.8752 12.1996 11.9411 12.3168 12.0582C12.4339 12.1754 12.4998 12.3343 12.5 12.5V13.125ZM3.75 10.625V6.25H5V10.625H3.75ZM6.25 10.625V6.25H8.75V10.625H6.25ZM10 10.625V6.25H11.25V10.625H10ZM2.5 5V4.20044L7.5 2.53356L12.5 4.20044V5H2.5Z" fill="black"/>
</g>
<defs>
<clipPath id="clip0_30_3662">
<rect width="15" height="15" fill="white"/>
</clipPath>
</defs>
</svg>
