<svg width="20" height="20" viewBox="0 0 20 20" fill="none" xmlns="http://www.w3.org/2000/svg">
<path d="M16.9502 7.76667L5.28354 1.93334C4.82312 1.70418 4.30322 1.6226 3.79473 1.69971C3.28625 1.77683 2.81392 2.0089 2.44215 2.36427C2.07038 2.71964 1.81725 3.18102 1.71728 3.68551C1.61732 4.19 1.67537 4.71305 1.88354 5.18334L3.88354 9.65834C3.92892 9.76653 3.95229 9.88268 3.95229 10C3.95229 10.1173 3.92892 10.2335 3.88354 10.3417L1.88354 14.8167C1.71412 15.1973 1.6425 15.6142 1.67519 16.0295C1.70787 16.4448 1.84382 16.8454 2.07069 17.1948C2.29756 17.5442 2.60814 17.8313 2.97423 18.0302C3.34031 18.229 3.75027 18.3332 4.16687 18.3333C4.55707 18.3294 4.94145 18.2383 5.29187 18.0667L16.9585 12.2333C17.3724 12.0252 17.7202 11.7061 17.9633 11.3117C18.2063 10.9174 18.3351 10.4632 18.3351 10C18.3351 9.53676 18.2063 9.08263 17.9633 8.68827C17.7202 8.29392 17.3724 7.97485 16.9585 7.76667H16.9502ZM16.2085 10.7417L4.54187 16.575C4.38867 16.6486 4.21665 16.6735 4.04886 16.6465C3.88107 16.6196 3.72555 16.5419 3.60313 16.424C3.48072 16.3062 3.39727 16.1537 3.36398 15.987C3.33069 15.8204 3.34915 15.6475 3.41687 15.4917L5.40854 11.0167C5.43432 10.9569 5.45658 10.8957 5.47521 10.8333H11.2169C11.4379 10.8333 11.6498 10.7455 11.8061 10.5893C11.9624 10.433 12.0502 10.221 12.0502 10C12.0502 9.77899 11.9624 9.56703 11.8061 9.41075C11.6498 9.25447 11.4379 9.16667 11.2169 9.16667H5.47521C5.45658 9.10431 5.43432 9.0431 5.40854 8.98334L3.41687 4.50834C3.34915 4.35247 3.33069 4.17963 3.36398 4.01298C3.39727 3.84633 3.48072 3.69384 3.60313 3.57596C3.72555 3.45808 3.88107 3.38045 4.04886 3.35347C4.21665 3.32648 4.38867 3.35145 4.54187 3.42501L16.2085 9.25834C16.345 9.32827 16.4596 9.43452 16.5396 9.56538C16.6196 9.69624 16.6619 9.84663 16.6619 10C16.6619 10.1534 16.6196 10.3038 16.5396 10.4346C16.4596 10.5655 16.345 10.6717 16.2085 10.7417Z" fill="white"/>
</svg>
