<?xml version="1.0" encoding="UTF-8"?>
<svg id="_Слой_1" data-name="Слой 1" xmlns="http://www.w3.org/2000/svg" viewBox="0 0 1000 1000">
  <defs>
    <style>
      .cls-1 {
        fill: #000;
      }
    </style>
  </defs>
  <g>
    <path class="cls-1" d="M121.98,887.89c.93,2.06,1.82,4.16,2.67,6.32,.85-2.21,1.74-4.36,2.67-6.47,.93-2.11,1.92-4.11,2.97-6.02l28.14-55.37c.5-.95,1.02-1.69,1.54-2.22,.53-.53,1.12-.91,1.77-1.17,.65-.25,1.39-.4,2.22-.45,.83-.05,1.79-.08,2.9-.08h19.41v109.62h-22.42v-63.05c0-3.06,.15-6.37,.45-9.93l-29.04,56.35c-.9,1.76-2.12,3.08-3.65,3.99-1.53,.9-3.27,1.35-5.23,1.35h-3.46c-1.96,0-3.7-.45-5.23-1.35-1.53-.9-2.75-2.23-3.65-3.99l-29.19-56.43c.2,1.76,.35,3.5,.45,5.23,.1,1.73,.15,3.32,.15,4.78v63.05h-22.42v-109.62h19.41c1.1,0,2.07,.03,2.9,.08,.83,.05,1.57,.2,2.22,.45,.65,.25,1.24,.64,1.77,1.17,.53,.53,1.04,1.27,1.54,2.22l28.21,55.6c1,1.91,1.97,3.89,2.9,5.94Z"/>
    <path class="cls-1" d="M238.41,852.83c5.92,0,11.31,.93,16.18,2.78,4.86,1.86,9.04,4.51,12.53,7.98,3.49,3.46,6.19,7.66,8.13,12.6,1.93,4.94,2.9,10.5,2.9,16.67s-.97,11.82-2.9,16.81c-1.93,4.99-4.64,9.23-8.13,12.71s-7.66,6.17-12.53,8.05c-4.87,1.88-10.26,2.82-16.18,2.82s-11.4-.94-16.29-2.82c-4.89-1.88-9.1-4.56-12.64-8.05-3.54-3.49-6.27-7.72-8.2-12.71-1.93-4.99-2.9-10.6-2.9-16.81s.97-11.72,2.9-16.67c1.93-4.94,4.67-9.14,8.2-12.6,3.54-3.46,7.75-6.12,12.64-7.98,4.89-1.85,10.32-2.78,16.29-2.78Zm0,63.12c5.37,0,9.32-1.89,11.85-5.68,2.53-3.79,3.8-9.54,3.8-17.27s-1.27-13.47-3.8-17.23c-2.53-3.76-6.48-5.64-11.85-5.64s-9.56,1.88-12.11,5.64c-2.56,3.76-3.84,9.51-3.84,17.23s1.28,13.48,3.84,17.27c2.56,3.79,6.6,5.68,12.11,5.68Z"/>
    <path class="cls-1" d="M346.07,932.06c-2.91,0-4.81-1.3-5.72-3.91l-1.81-5.94c-1.56,1.66-3.19,3.16-4.89,4.51-1.71,1.35-3.55,2.52-5.53,3.5-1.98,.98-4.11,1.73-6.4,2.26-2.28,.53-4.75,.79-7.41,.79-4.06,0-7.82-.9-11.29-2.71-3.46-1.81-6.45-4.41-8.95-7.82-2.51-3.41-4.48-7.59-5.91-12.53-1.43-4.94-2.14-10.57-2.14-16.89,0-5.82,.8-11.22,2.41-16.21,1.6-4.99,3.87-9.3,6.81-12.94,2.93-3.64,6.46-6.48,10.57-8.54,4.11-2.06,8.65-3.08,13.62-3.08,4.01,0,7.41,.59,10.19,1.77,2.78,1.18,5.3,2.72,7.56,4.63v-39.5h23.32v112.63h-14.45Zm-23.62-16.7c1.7,0,3.25-.16,4.63-.49,1.38-.33,2.65-.79,3.8-1.39,1.15-.6,2.24-1.35,3.27-2.26,1.03-.9,2.04-1.96,3.05-3.16v-33.1c-1.81-1.96-3.72-3.32-5.76-4.1-2.03-.78-4.18-1.17-6.43-1.17s-4.14,.43-5.94,1.28c-1.81,.85-3.37,2.22-4.7,4.1-1.33,1.88-2.37,4.33-3.12,7.34-.75,3.01-1.13,6.65-1.13,10.91s.3,7.57,.9,10.38c.6,2.81,1.44,5.08,2.52,6.81,1.08,1.73,2.37,2.97,3.87,3.72,1.5,.75,3.18,1.13,5.04,1.13Z"/>
    <path class="cls-1" d="M408.74,952.29c-.7,1.55-1.55,2.7-2.56,3.42-1,.73-2.61,1.09-4.82,1.09h-17.46l15.05-31.6-31.15-71.17h20.61c1.81,0,3.2,.4,4.18,1.2,.98,.8,1.69,1.76,2.14,2.86l12.79,33.63c1.2,3.11,2.18,6.22,2.93,9.33,.5-1.6,1.04-3.2,1.62-4.78,.58-1.58,1.17-3.15,1.77-4.7l11.59-33.48c.45-1.15,1.25-2.12,2.41-2.9,1.15-.78,2.41-1.17,3.76-1.17h18.81l-41.68,98.26Z"/>
    <path class="cls-1" d="M480.59,819.43v112.63h-23.32v-112.63h23.32Z"/>
    <path class="cls-1" d="M496.31,876.91h40.63v18.81h-40.63v-18.81Z"/>
    <path class="cls-1" d="M582.38,852.68c3.31,0,6.43,.33,9.37,.98,2.93,.65,5.65,1.58,8.16,2.78h23.55v8.5c0,1.3-.36,2.33-1.09,3.08-.73,.75-1.97,1.33-3.72,1.73l-5.72,1.28c.7,2.26,1.05,4.59,1.05,7,0,3.91-.82,7.42-2.45,10.53-1.63,3.11-3.86,5.76-6.7,7.94-2.83,2.18-6.18,3.86-10.04,5.04-3.86,1.18-8,1.77-12.41,1.77-2.46,0-4.77-.15-6.92-.45-1.71,1-2.56,2.16-2.56,3.46s.7,2.25,2.11,2.82c1.4,.58,3.26,.98,5.57,1.2,2.31,.23,4.93,.38,7.86,.45,2.93,.08,5.93,.25,8.99,.53,3.06,.28,6.06,.74,8.99,1.39,2.93,.65,5.55,1.71,7.86,3.16,2.31,1.46,4.16,3.4,5.57,5.83,1.4,2.43,2.11,5.53,2.11,9.29,0,3.51-.85,6.95-2.56,10.31-1.71,3.36-4.21,6.34-7.52,8.95-3.31,2.61-7.37,4.7-12.19,6.28-4.81,1.58-10.33,2.37-16.55,2.37s-11.4-.58-15.84-1.73c-4.44-1.15-8.13-2.67-11.06-4.55-2.93-1.88-5.1-4.05-6.51-6.51-1.41-2.46-2.11-5.02-2.11-7.67,0-3.46,1-6.35,3.01-8.65,2.01-2.31,4.82-4.16,8.43-5.57-1.91-1.15-3.41-2.63-4.51-4.44-1.1-1.81-1.66-4.14-1.66-7,0-1.15,.2-2.37,.6-3.65,.4-1.28,1.03-2.52,1.88-3.72,.85-1.2,1.93-2.36,3.23-3.46,1.3-1.1,2.86-2.08,4.67-2.93-4.06-2.16-7.26-5.01-9.59-8.58-2.33-3.56-3.5-7.7-3.5-12.41,0-3.91,.83-7.44,2.48-10.57,1.66-3.13,3.92-5.79,6.81-7.98,2.88-2.18,6.28-3.86,10.2-5.04,3.91-1.18,8.15-1.77,12.71-1.77Zm18.06,82.23c0-1.86-.83-3.2-2.48-4.02s-3.81-1.4-6.47-1.73c-2.66-.33-5.64-.53-8.95-.6s-6.6-.29-9.86-.64c-1.46,1-2.63,2.12-3.54,3.35-.9,1.23-1.35,2.62-1.35,4.18,0,1.1,.24,2.11,.71,3.01s1.32,1.68,2.52,2.33c1.2,.65,2.82,1.17,4.85,1.54,2.03,.38,4.6,.56,7.71,.56,3.36,0,6.12-.2,8.28-.6,2.16-.4,3.88-.95,5.15-1.65,1.28-.7,2.17-1.54,2.67-2.52,.5-.98,.75-2.04,.75-3.2Zm-18.06-45.97c3.86,0,6.66-.96,8.39-2.9,1.73-1.93,2.6-4.43,2.6-7.49s-.87-5.64-2.6-7.45-4.53-2.71-8.39-2.71-6.66,.9-8.39,2.71c-1.73,1.81-2.59,4.29-2.59,7.45,0,1.5,.21,2.88,.64,4.14,.43,1.25,1.09,2.35,1.99,3.27,.9,.93,2.04,1.66,3.42,2.18,1.38,.53,3.02,.79,4.93,.79Z"/>
    <path class="cls-1" d="M633.24,932.06v-78.02h13.84c1.15,0,2.12,.1,2.9,.3,.78,.2,1.43,.51,1.96,.94,.53,.43,.93,.99,1.2,1.69,.28,.7,.51,1.56,.71,2.56l1.13,6.62c2.46-4.21,5.25-7.54,8.39-9.97,3.13-2.43,6.73-3.65,10.8-3.65,3.51,0,6.37,.83,8.58,2.48l-1.5,17.15c-.25,1.1-.67,1.86-1.24,2.26-.58,.4-1.37,.6-2.37,.6-.4,0-.93-.02-1.58-.08-.65-.05-1.33-.11-2.03-.19-.7-.08-1.42-.15-2.14-.23-.73-.08-1.39-.11-1.99-.11-3.41,0-6.13,.92-8.16,2.75-2.03,1.83-3.75,4.35-5.15,7.56v47.32h-23.32Z"/>
    <path class="cls-1" d="M725.26,852.83c5.92,0,11.31,.93,16.18,2.78,4.86,1.86,9.04,4.51,12.53,7.98,3.49,3.46,6.19,7.66,8.12,12.6,1.93,4.94,2.9,10.5,2.9,16.67s-.97,11.82-2.9,16.81c-1.93,4.99-4.64,9.23-8.12,12.71-3.49,3.49-7.66,6.17-12.53,8.05-4.87,1.88-10.26,2.82-16.18,2.82s-11.4-.94-16.29-2.82c-4.89-1.88-9.1-4.56-12.64-8.05-3.54-3.49-6.27-7.72-8.2-12.71-1.93-4.99-2.9-10.6-2.9-16.81s.96-11.72,2.9-16.67c1.93-4.94,4.67-9.14,8.2-12.6,3.54-3.46,7.75-6.12,12.64-7.98,4.89-1.85,10.32-2.78,16.29-2.78Zm0,63.12c5.37,0,9.32-1.89,11.85-5.68,2.53-3.79,3.8-9.54,3.8-17.27s-1.27-13.47-3.8-17.23c-2.53-3.76-6.48-5.64-11.85-5.64s-9.55,1.88-12.11,5.64c-2.56,3.76-3.84,9.51-3.84,17.23s1.28,13.48,3.84,17.27c2.56,3.79,6.6,5.68,12.11,5.68Z"/>
    <path class="cls-1" d="M799.29,854.04v49.51c0,3.86,.88,6.85,2.63,8.95,1.75,2.11,4.34,3.16,7.75,3.16,2.56,0,4.95-.53,7.18-1.58,2.23-1.05,4.4-2.53,6.51-4.44v-55.6h23.32v78.02h-14.45c-2.91,0-4.81-1.3-5.72-3.91l-1.43-4.51c-1.5,1.46-3.06,2.77-4.66,3.95-1.61,1.18-3.32,2.18-5.15,3.01-1.83,.83-3.8,1.48-5.91,1.96-2.11,.48-4.41,.71-6.92,.71-4.26,0-8.04-.74-11.32-2.22-3.29-1.48-6.06-3.55-8.31-6.21-2.26-2.66-3.96-5.79-5.12-9.4-1.15-3.61-1.73-7.57-1.73-11.89v-49.51h23.32Z"/>
    <path class="cls-1" d="M862.48,956.81v-102.77h14.45c2.91,0,4.82,1.31,5.72,3.91l1.73,5.72c1.5-1.66,3.12-3.16,4.85-4.51,1.73-1.35,3.59-2.52,5.57-3.5,1.98-.98,4.11-1.74,6.39-2.29,2.28-.55,4.78-.83,7.49-.83,4.06,0,7.82,.9,11.29,2.71s6.44,4.41,8.95,7.82c2.51,3.41,4.48,7.59,5.91,12.53,1.43,4.94,2.14,10.55,2.14,16.82,0,5.87-.82,11.29-2.44,16.25-1.63,4.97-3.91,9.28-6.85,12.94-2.93,3.66-6.45,6.52-10.53,8.58-4.09,2.06-8.61,3.08-13.58,3.08-4.06,0-7.47-.58-10.23-1.73-2.76-1.15-5.27-2.71-7.52-4.66v29.94h-23.32Zm38.07-86.45c-1.71,0-3.25,.16-4.63,.49-1.38,.33-2.66,.79-3.84,1.39-1.18,.6-2.27,1.37-3.27,2.29-1,.93-2.01,1.99-3.01,3.2v33.1c1.75,1.96,3.66,3.32,5.72,4.1,2.06,.78,4.21,1.17,6.47,1.17s4.14-.43,5.94-1.28c1.81-.85,3.37-2.22,4.7-4.1s2.37-4.33,3.12-7.34c.75-3.01,1.13-6.67,1.13-10.98s-.3-7.57-.9-10.38c-.6-2.81-1.44-5.08-2.52-6.81-1.08-1.73-2.37-2.97-3.88-3.72s-3.19-1.13-5.04-1.13Z"/>
  </g>
  <g>
    <polygon class="cls-1" points="376.14 421.48 376.14 421.37 361.98 400.95 376.14 421.48"/>
    <g>
      <polygon class="cls-1" points="479.73 41.08 97.94 364.36 97.94 435.74 480.21 112.06 862.06 426.61 862.06 356.04 479.73 41.08"/>
      <polygon class="cls-1" points="473.24 651.94 539.5 651.94 539.5 703.83 430.32 703.83 430.32 547.96 376.14 468.28 376.14 758.01 593.68 758.01 593.68 597.76 473.24 597.76 473.24 651.94"/>
      <path class="cls-1" d="M626.63,282.46l-.03,.04-.03-.02v.06l-143,195.02-53.26-72.63v-127.49l51.38-42.71,90.81,75.03,32.06-43.79-123.6-102.01-104.14,88.74-.69,78.35-35.63-48.59v.02s-156.88,131.02-156.88,131.02v344.51h156.89V369.98l21.45,30.94,.02,.03,14.16,20.42v.12l54.18,78.58v-.56l53.26,76.81,143-206.25v387.95h156.89V413.5l-156.77-130.93-.06-.11Zm-340.3,421.37h-48.53V438.85l48.53-40.53v305.52Zm394.42-305.53l48.54,40.54v264.99h-48.54V398.31Z"/>
    </g>
  </g>
</svg>
