<svg width="20" height="20" viewBox="0 0 20 20" fill="none" xmlns="http://www.w3.org/2000/svg">
<path d="M17.5001 1.66663H2.50008C2.27907 1.66663 2.06711 1.75442 1.91083 1.9107C1.75455 2.06698 1.66675 2.27895 1.66675 2.49996V17.5C1.66675 17.721 1.75455 17.9329 1.91083 18.0892C2.06711 18.2455 2.27907 18.3333 2.50008 18.3333H7.50008C7.7211 18.3333 7.93306 18.2455 8.08934 18.0892C8.24562 17.9329 8.33341 17.721 8.33341 17.5V8.33329H17.5001C17.7211 8.33329 17.9331 8.24549 18.0893 8.08921C18.2456 7.93293 18.3334 7.72097 18.3334 7.49996V2.49996C18.3334 2.27895 18.2456 2.06698 18.0893 1.9107C17.9331 1.75442 17.7211 1.66663 17.5001 1.66663ZM16.6667 6.66663H15.0001V5.83329C15.0001 5.61228 14.9123 5.40032 14.756 5.24404C14.5997 5.08776 14.3878 4.99996 14.1667 4.99996C13.9457 4.99996 13.7338 5.08776 13.5775 5.24404C13.4212 5.40032 13.3334 5.61228 13.3334 5.83329V6.66663H11.6667V5.83329C11.6667 5.61228 11.5789 5.40032 11.4227 5.24404C11.2664 5.08776 11.0544 4.99996 10.8334 4.99996C10.6124 4.99996 10.4004 5.08776 10.2442 5.24404C10.0879 5.40032 10.0001 5.61228 10.0001 5.83329V6.66663H8.33341V5.83329C8.33341 5.61228 8.24562 5.40032 8.08934 5.24404C7.93306 5.08776 7.7211 4.99996 7.50008 4.99996C7.27907 4.99996 7.06711 5.08776 6.91083 5.24404C6.75455 5.40032 6.66675 5.61228 6.66675 5.83329V6.66663H5.83341C5.6124 6.66663 5.40044 6.75442 5.24416 6.9107C5.08788 7.06698 5.00008 7.27895 5.00008 7.49996C5.00008 7.72097 5.08788 7.93293 5.24416 8.08921C5.40044 8.24549 5.6124 8.33329 5.83341 8.33329H6.66675V9.99996H5.83341C5.6124 9.99996 5.40044 10.0878 5.24416 10.244C5.08788 10.4003 5.00008 10.6123 5.00008 10.8333C5.00008 11.0543 5.08788 11.2663 5.24416 11.4225C5.40044 11.5788 5.6124 11.6666 5.83341 11.6666H6.66675V13.3333H5.83341C5.6124 13.3333 5.40044 13.4211 5.24416 13.5774C5.08788 13.7336 5.00008 13.9456 5.00008 14.1666C5.00008 14.3876 5.08788 14.5996 5.24416 14.7559C5.40044 14.9122 5.6124 15 5.83341 15H6.66675V16.6666H3.33341V3.33329H16.6667V6.66663Z" fill="black"/>
</svg>
