<svg width="20" height="20" viewBox="0 0 20 20" fill="none" xmlns="http://www.w3.org/2000/svg">
<path d="M17.5585 14.025L15.8335 12.2583C15.4624 11.9056 14.9944 11.6719 14.4895 11.5873C13.9846 11.5027 13.4659 11.5709 13.0002 11.7833L12.2502 11.0333C13.134 9.85244 13.5376 8.38058 13.3798 6.91404C13.222 5.44751 12.5145 4.0952 11.3997 3.12935C10.2849 2.16349 8.8456 1.65581 7.37154 1.7085C5.89748 1.76119 4.49811 2.37034 3.45513 3.41332C2.41215 4.4563 1.803 5.85567 1.75031 7.32973C1.69762 8.80379 2.2053 10.2431 3.17115 11.3579C4.13701 12.4727 5.48932 13.1802 6.95585 13.338C8.42239 13.4958 9.89425 13.0921 11.0752 12.2083L11.8168 12.95C11.5794 13.4164 11.4943 13.9455 11.5735 14.4628C11.6528 14.9801 11.8924 15.4594 12.2585 15.8333L14.0252 17.6C14.4939 18.0682 15.1293 18.3311 15.7918 18.3311C16.4543 18.3311 17.0897 18.0682 17.5585 17.6C17.7966 17.3672 17.9858 17.0891 18.115 16.7822C18.2441 16.4752 18.3107 16.1455 18.3107 15.8125C18.3107 15.4795 18.2441 15.1498 18.115 14.8429C17.9858 14.5359 17.7966 14.2578 17.5585 14.025ZM10.4918 10.4917C9.90868 11.0733 9.16624 11.4691 8.35827 11.6291C7.55031 11.789 6.71307 11.7058 5.95232 11.3902C5.19158 11.0745 4.54146 10.5404 4.08408 9.85546C3.62671 9.17048 3.3826 8.36532 3.3826 7.54168C3.3826 6.71804 3.62671 5.91287 4.08408 5.2279C4.54146 4.54292 5.19158 4.00886 5.95232 3.69319C6.71307 3.37751 7.55031 3.29439 8.35827 3.4543C9.16624 3.61422 9.90868 4.01001 10.4918 4.59168C10.8798 4.97873 11.1877 5.43852 11.3978 5.94473C11.6078 6.45094 11.7159 6.99362 11.7159 7.54168C11.7159 8.08974 11.6078 8.63242 11.3978 9.13863C11.1877 9.64483 10.8798 10.1046 10.4918 10.4917ZM16.3835 16.3833C16.306 16.4615 16.2139 16.5234 16.1123 16.5658C16.0108 16.6081 15.9018 16.6298 15.7918 16.6298C15.6818 16.6298 15.5729 16.6081 15.4713 16.5658C15.3698 16.5234 15.2776 16.4615 15.2002 16.3833L13.4335 14.6167C13.3554 14.5392 13.2934 14.447 13.2511 14.3455C13.2088 14.2439 13.187 14.135 13.187 14.025C13.187 13.915 13.2088 13.8061 13.2511 13.7045C13.2934 13.603 13.3554 13.5108 13.4335 13.4333C13.511 13.3552 13.6031 13.2932 13.7047 13.2509C13.8062 13.2086 13.9151 13.1868 14.0252 13.1868C14.1352 13.1868 14.2441 13.2086 14.3456 13.2509C14.4472 13.2932 14.5394 13.3552 14.6168 13.4333L16.3835 15.2C16.4616 15.2775 16.5236 15.3696 16.5659 15.4712C16.6082 15.5727 16.63 15.6817 16.63 15.7917C16.63 15.9017 16.6082 16.0106 16.5659 16.1122C16.5236 16.2137 16.4616 16.3059 16.3835 16.3833Z" fill="#4A362F"/>
</svg>
