<svg width="20" height="20" viewBox="0 0 20 20" fill="none" xmlns="http://www.w3.org/2000/svg">
<path d="M17.2749 6.09333C17.3812 5.74025 17.2749 5.48132 16.7722 5.48132H15.107C14.6833 5.48132 14.4897 5.70532 14.3834 5.95134C14.3834 5.95134 13.5368 8.01593 12.337 9.3546C11.9498 9.74413 11.7729 9.86714 11.5618 9.86714C11.4562 9.86714 11.3028 9.74413 11.3028 9.39105V6.09333C11.3028 5.66963 11.1806 5.48132 10.8275 5.48132H8.21091C7.94667 5.48132 7.78721 5.67723 7.78721 5.86402C7.78721 6.26494 8.38707 6.35758 8.44858 7.48744V9.93852C8.44858 10.4754 8.35214 10.5733 8.13953 10.5733C7.57536 10.5733 6.20251 8.50113 5.38777 6.12902C5.22907 5.66812 5.06885 5.48208 4.64363 5.48208H2.97921C2.50312 5.48208 2.4082 5.70608 2.4082 5.9521C2.4082 6.39402 2.97238 8.58086 5.0362 11.4731C6.41209 13.4481 8.3491 14.5187 10.1138 14.5187C11.1715 14.5187 11.3021 14.2811 11.3021 13.871V12.3782C11.3021 11.9029 11.4031 11.8072 11.7379 11.8072C11.984 11.8072 12.4077 11.9317 13.3955 12.8832C14.5239 14.0115 14.7107 14.518 15.3447 14.518H17.0091C17.4845 14.518 17.7221 14.2803 17.5854 13.811C17.4359 13.3441 16.8967 12.6645 16.1815 11.8604C15.7927 11.4017 15.2118 10.9082 15.0349 10.6614C14.7881 10.3432 14.8595 10.2028 15.0349 9.9203C15.0357 9.92105 17.0638 7.0645 17.2749 6.09333Z" fill="white"/>
</svg>
