<svg width="20" height="20" viewBox="0 0 20 20" fill="none" xmlns="http://www.w3.org/2000/svg">
<g clip-path="url(#clip0_30_5357)">
<path fill-rule="evenodd" clip-rule="evenodd" d="M9.99935 1.66602C5.39685 1.66602 1.66602 5.39685 1.66602 9.99935C1.66602 11.5743 2.10352 13.0493 2.86435 14.306L2.12102 16.8327C2.07834 16.9778 2.07553 17.1316 2.11289 17.2782C2.15024 17.4247 2.22639 17.5585 2.33332 17.6654C2.44024 17.7723 2.574 17.8485 2.72053 17.8858C2.86706 17.9232 3.02095 17.9204 3.16602 17.8777L5.69268 17.1343C6.99158 17.9203 8.4812 18.3347 9.99935 18.3327C14.6018 18.3327 18.3327 14.6018 18.3327 9.99935C18.3327 5.39685 14.6018 1.66602 9.99935 1.66602ZM8.11435 11.8852C9.80018 13.5702 11.4093 13.7927 11.9777 13.8135C12.8418 13.8452 13.6835 13.1852 14.011 12.4193C14.0524 12.3241 14.0674 12.2195 14.0545 12.1164C14.0416 12.0134 14.0012 11.9157 13.9377 11.8335C13.481 11.2502 12.8635 10.831 12.2602 10.4143C12.1342 10.3273 11.9794 10.2923 11.8282 10.3169C11.6771 10.3414 11.5413 10.4235 11.4493 10.546L10.9493 11.3085C10.9231 11.3495 10.8821 11.3789 10.8348 11.3907C10.7876 11.4025 10.7376 11.3957 10.6952 11.3719C10.356 11.1777 9.86185 10.8477 9.50685 10.4927C9.15185 10.1377 8.84185 9.66602 8.66768 9.34852C8.64609 9.30818 8.63984 9.26138 8.65011 9.21679C8.66038 9.1722 8.68646 9.13285 8.72352 9.10602L9.49352 8.53435C9.6034 8.4388 9.67432 8.30618 9.69276 8.16174C9.7112 8.01729 9.67588 7.87111 9.59351 7.75102C9.22018 7.20435 8.78518 6.50935 8.15435 6.04852C8.07294 5.98952 7.97757 5.95273 7.87763 5.94177C7.77768 5.93082 7.67661 5.94606 7.58435 5.98602C6.81768 6.31435 6.15435 7.15602 6.18602 8.02185C6.20685 8.59018 6.42935 10.1993 8.11435 11.8852Z" fill="white"/>
</g>
<defs>
<clipPath id="clip0_30_5357">
<rect width="20" height="20" fill="white"/>
</clipPath>
</defs>
</svg>
